<?xml version="1.0" encoding="utf-8"?>
<!-- Generator: Adobe Illustrator 26.5.0, SVG Export Plug-In . SVG Version: 6.00 Build 0)  -->
<svg version="1.1" id="Layer_1" xmlns="http://www.w3.org/2000/svg" xmlns:xlink="http://www.w3.org/1999/xlink" x="0px" y="0px"
	 viewBox="0 0 32 32" style="enable-background:new 0 0 32 32;" xml:space="preserve">
<style type="text/css">
	.st0{fill:#231F20;}
</style>
<g id="Layer_2_00000137115852824619187930000002042587193447184514_">
	<path class="st0" d="M15.2,16.7l9.6,9.6c0,0,0,0,0,0c0.4,0.4,1,0.4,1.4,0l0,0c0.4-0.4,0.4-1,0-1.4l-8.8-8.8l9.1-9.1
		c0.3-0.4,0.3-0.9,0-1.3c-0.4-0.4-1-0.5-1.4-0.1l-9.9,9.9C14.9,15.9,14.9,16.4,15.2,16.7z"/>
	<path class="st0" d="M5.6,16.7l9.6,9.6c0.4,0.4,1,0.4,1.4,0l0,0c0.4-0.4,0.4-1,0-1.4l-8.8-8.8l9.1-9.1c0.3-0.4,0.3-0.9,0-1.3
		c-0.4-0.4-1-0.5-1.4-0.1l-9.9,9.9C5.3,15.9,5.3,16.4,5.6,16.7z"/>
</g>
</svg>
